<svg class="dgm" viewBox="0 0 512 250" role="img" aria-label="Request to positive-response SIDs all differ by 0x40: 10 to 50, 22 to 62, 27 to 67, 31 to 71.">
<text x="250" y="22" text-anchor="middle" class="ink w7" font-size="14">One rule, every service</text><g><rect x="60" y="38" width="58" height="50" rx="0" class="plate ln" stroke-width="2.4"/><text x="89" y="70.14" text-anchor="middle" class="ink mono-t" font-size="21">10</text></g><text x="206" y="68" text-anchor="middle" class="acc mono-t" font-size="12">+40</text><path d="M 124 63 H 226 M 220 58 L 226 63 L 220 68" class="ln" stroke-width="1.5" fill="none" stroke-linecap="round" stroke-linejoin="round"/><g><rect x="232" y="38" width="58" height="50" rx="0" class="plate tick" stroke-width="2.4"/><text x="261" y="70.14" text-anchor="middle" class="ink mono-t" font-size="21">50</text><circle cx="278" cy="50" r="9" class="plate tick" stroke-width="1.6"/><path d="M 274 50 l 2.6 2.8 L 282.4 46.4" class="tick" stroke-width="1.9" fill="none" stroke-linecap="round" stroke-linejoin="round"/></g><text x="306" y="68" class="mut mono-t" font-size="11.5">DiagnosticSessionControl</text><g><rect x="60" y="90" width="58" height="50" rx="0" class="plate ln" stroke-width="2.4"/><text x="89" y="122.14" text-anchor="middle" class="ink mono-t" font-size="21">22</text></g><text x="206" y="120" text-anchor="middle" class="acc mono-t" font-size="12">+40</text><path d="M 124 115 H 226 M 220 110 L 226 115 L 220 120" class="ln" stroke-width="1.5" fill="none" stroke-linecap="round" stroke-linejoin="round"/><g><rect x="232" y="90" width="58" height="50" rx="0" class="plate tick" stroke-width="2.4"/><text x="261" y="122.14" text-anchor="middle" class="ink mono-t" font-size="21">62</text><circle cx="278" cy="102" r="9" class="plate tick" stroke-width="1.6"/><path d="M 274 102 l 2.6 2.8 L 282.4 98.4" class="tick" stroke-width="1.9" fill="none" stroke-linecap="round" stroke-linejoin="round"/></g><text x="306" y="120" class="mut mono-t" font-size="11.5">ReadDataByIdentifier</text><g><rect x="60" y="142" width="58" height="50" rx="0" class="plate ln" stroke-width="2.4"/><text x="89" y="174.14" text-anchor="middle" class="ink mono-t" font-size="21">27</text></g><text x="206" y="172" text-anchor="middle" class="acc mono-t" font-size="12">+40</text><path d="M 124 167 H 226 M 220 162 L 226 167 L 220 172" class="ln" stroke-width="1.5" fill="none" stroke-linecap="round" stroke-linejoin="round"/><g><rect x="232" y="142" width="58" height="50" rx="0" class="plate tick" stroke-width="2.4"/><text x="261" y="174.14" text-anchor="middle" class="ink mono-t" font-size="21">67</text><circle cx="278" cy="154" r="9" class="plate tick" stroke-width="1.6"/><path d="M 274 154 l 2.6 2.8 L 282.4 150.4" class="tick" stroke-width="1.9" fill="none" stroke-linecap="round" stroke-linejoin="round"/></g><text x="306" y="172" class="mut mono-t" font-size="11.5">SecurityAccess</text><g><rect x="60" y="194" width="58" height="50" rx="0" class="plate ln" stroke-width="2.4"/><text x="89" y="226.14" text-anchor="middle" class="ink mono-t" font-size="21">31</text></g><text x="206" y="224" text-anchor="middle" class="acc mono-t" font-size="12">+40</text><path d="M 124 219 H 226 M 220 214 L 226 219 L 220 224" class="ln" stroke-width="1.5" fill="none" stroke-linecap="round" stroke-linejoin="round"/><g><rect x="232" y="194" width="58" height="50" rx="0" class="plate tick" stroke-width="2.4"/><text x="261" y="226.14" text-anchor="middle" class="ink mono-t" font-size="21">71</text><circle cx="278" cy="206" r="9" class="plate tick" stroke-width="1.6"/><path d="M 274 206 l 2.6 2.8 L 282.4 202.4" class="tick" stroke-width="1.9" fill="none" stroke-linecap="round" stroke-linejoin="round"/></g><text x="306" y="224" class="mut mono-t" font-size="11.5">RoutineControl</text>
</svg>