<svg class="dgm" viewBox="0 0 555 217" role="img" aria-label="Service identifiers 10, 22, 3E and 85 in binary: bit 6 is 0 on every one, so +0x40 can claim it; bit 7 is already used by 85 (ControlDTCSetting) so it is not free.">
<g data-stage="1" data-until="1"><text x="277.5" y="28" text-anchor="middle" class="ink w7" font-size="14.5">Read a service identifier in binary</text></g><g data-stage="2" data-until="2"><text x="277.5" y="28" text-anchor="middle" class="ink w7" font-size="14.5">Bit 6 is 0 on every request</text></g><g data-stage="3" data-until="3"><text x="277.5" y="28" text-anchor="middle" class="ink w7" font-size="14.5">Bit 6 is the only always-free bit</text></g><g data-stage="2"><rect x="142" y="40" width="46" height="163" class="acc" opacity="0.12"/></g><text x="120" y="52" text-anchor="middle" class="mut" font-size="9">bit 7</text><text x="165" y="52" text-anchor="middle" class="mut" font-size="9">bit 6</text><text x="210" y="52" text-anchor="middle" class="mut" font-size="9">bit 5</text><text x="255" y="52" text-anchor="middle" class="mut" font-size="9">bit 4</text><text x="300" y="52" text-anchor="middle" class="mut" font-size="9">bit 3</text><text x="345" y="52" text-anchor="middle" class="mut" font-size="9">bit 2</text><text x="390" y="52" text-anchor="middle" class="mut" font-size="9">bit 1</text><text x="435" y="52" text-anchor="middle" class="mut" font-size="9">bit 0</text><g data-stage="1"><text x="82" y="80" text-anchor="end" class="acc mono-t w7" font-size="14">10h</text><rect x="100" y="62" width="40" height="26" class="ln" stroke-width="1" fill="none"/><text x="120" y="80" text-anchor="middle" class="mut mono-t" font-size="13">0</text><rect x="145" y="62" width="40" height="26" class="acc-s" stroke-width="1.7" fill="none"/><text x="165" y="80" text-anchor="middle" class="mut mono-t" font-size="13">0</text><rect x="190" y="62" width="40" height="26" class="ln" stroke-width="1" fill="none"/><text x="210" y="80" text-anchor="middle" class="mut mono-t" font-size="13">0</text><rect x="235" y="62" width="40" height="26" class="ln" stroke-width="1" fill="none"/><text x="255" y="80" text-anchor="middle" class="ink mono-t" font-size="13">1</text><rect x="280" y="62" width="40" height="26" class="ln" stroke-width="1" fill="none"/><text x="300" y="80" text-anchor="middle" class="mut mono-t" font-size="13">0</text><rect x="325" y="62" width="40" height="26" class="ln" stroke-width="1" fill="none"/><text x="345" y="80" text-anchor="middle" class="mut mono-t" font-size="13">0</text><rect x="370" y="62" width="40" height="26" class="ln" stroke-width="1" fill="none"/><text x="390" y="80" text-anchor="middle" class="mut mono-t" font-size="13">0</text><rect x="415" y="62" width="40" height="26" class="ln" stroke-width="1" fill="none"/><text x="435" y="80" text-anchor="middle" class="mut mono-t" font-size="13">0</text></g><g data-stage="2"><text x="82" y="111" text-anchor="end" class="acc mono-t w7" font-size="14">22h</text><rect x="100" y="93" width="40" height="26" class="ln" stroke-width="1" fill="none"/><text x="120" y="111" text-anchor="middle" class="mut mono-t" font-size="13">0</text><rect x="145" y="93" width="40" height="26" class="acc-s" stroke-width="1.7" fill="none"/><text x="165" y="111" text-anchor="middle" class="mut mono-t" font-size="13">0</text><rect x="190" y="93" width="40" height="26" class="ln" stroke-width="1" fill="none"/><text x="210" y="111" text-anchor="middle" class="ink mono-t" font-size="13">1</text><rect x="235" y="93" width="40" height="26" class="ln" stroke-width="1" fill="none"/><text x="255" y="111" text-anchor="middle" class="mut mono-t" font-size="13">0</text><rect x="280" y="93" width="40" height="26" class="ln" stroke-width="1" fill="none"/><text x="300" y="111" text-anchor="middle" class="mut mono-t" font-size="13">0</text><rect x="325" y="93" width="40" height="26" class="ln" stroke-width="1" fill="none"/><text x="345" y="111" text-anchor="middle" class="mut mono-t" font-size="13">0</text><rect x="370" y="93" width="40" height="26" class="ln" stroke-width="1" fill="none"/><text x="390" y="111" text-anchor="middle" class="ink mono-t" font-size="13">1</text><rect x="415" y="93" width="40" height="26" class="ln" stroke-width="1" fill="none"/><text x="435" y="111" text-anchor="middle" class="mut mono-t" font-size="13">0</text></g><g data-stage="2"><text x="82" y="142" text-anchor="end" class="acc mono-t w7" font-size="14">3Eh</text><rect x="100" y="124" width="40" height="26" class="ln" stroke-width="1" fill="none"/><text x="120" y="142" text-anchor="middle" class="mut mono-t" font-size="13">0</text><rect x="145" y="124" width="40" height="26" class="acc-s" stroke-width="1.7" fill="none"/><text x="165" y="142" text-anchor="middle" class="mut mono-t" font-size="13">0</text><rect x="190" y="124" width="40" height="26" class="ln" stroke-width="1" fill="none"/><text x="210" y="142" text-anchor="middle" class="ink mono-t" font-size="13">1</text><rect x="235" y="124" width="40" height="26" class="ln" stroke-width="1" fill="none"/><text x="255" y="142" text-anchor="middle" class="ink mono-t" font-size="13">1</text><rect x="280" y="124" width="40" height="26" class="ln" stroke-width="1" fill="none"/><text x="300" y="142" text-anchor="middle" class="ink mono-t" font-size="13">1</text><rect x="325" y="124" width="40" height="26" class="ln" stroke-width="1" fill="none"/><text x="345" y="142" text-anchor="middle" class="ink mono-t" font-size="13">1</text><rect x="370" y="124" width="40" height="26" class="ln" stroke-width="1" fill="none"/><text x="390" y="142" text-anchor="middle" class="ink mono-t" font-size="13">1</text><rect x="415" y="124" width="40" height="26" class="ln" stroke-width="1" fill="none"/><text x="435" y="142" text-anchor="middle" class="mut mono-t" font-size="13">0</text></g><g data-stage="2"><text x="82" y="173" text-anchor="end" class="acc mono-t w7" font-size="14">85h</text><rect x="100" y="155" width="40" height="26" class="ln" stroke-width="1" fill="none"/><text x="120" y="173" text-anchor="middle" class="ink mono-t" font-size="13">1</text><rect x="145" y="155" width="40" height="26" class="acc-s" stroke-width="1.7" fill="none"/><text x="165" y="173" text-anchor="middle" class="mut mono-t" font-size="13">0</text><rect x="190" y="155" width="40" height="26" class="ln" stroke-width="1" fill="none"/><text x="210" y="173" text-anchor="middle" class="mut mono-t" font-size="13">0</text><rect x="235" y="155" width="40" height="26" class="ln" stroke-width="1" fill="none"/><text x="255" y="173" text-anchor="middle" class="mut mono-t" font-size="13">0</text><rect x="280" y="155" width="40" height="26" class="ln" stroke-width="1" fill="none"/><text x="300" y="173" text-anchor="middle" class="mut mono-t" font-size="13">0</text><rect x="325" y="155" width="40" height="26" class="ln" stroke-width="1" fill="none"/><text x="345" y="173" text-anchor="middle" class="ink mono-t" font-size="13">1</text><rect x="370" y="155" width="40" height="26" class="ln" stroke-width="1" fill="none"/><text x="390" y="173" text-anchor="middle" class="mut mono-t" font-size="13">0</text><rect x="415" y="155" width="40" height="26" class="ln" stroke-width="1" fill="none"/><text x="435" y="173" text-anchor="middle" class="ink mono-t" font-size="13">1</text></g><g data-stage="3"><rect x="99" y="154" width="42" height="28" class="cross" stroke-width="1.9" fill="none"/><text x="179.5" y="203" text-anchor="middle" class="acc mono-t w7" font-size="10.5">bit 6: 0 on all → free</text><text x="375.5" y="203" text-anchor="middle" class="red mono-t w7" font-size="10.5">bit 7: used by 85h</text></g>
</svg>