<svg class="dgm" viewBox="0 0 554 186" role="img" aria-label="Bit 6 is the 40h place value (0100 0000 = 40h = 64); setting it on the request 10h therefore adds 40h to make 50h, and the same +40h holds for every service (22h to 62h, 3Eh to 7Eh, 85h to C5h).">
<g data-stage="1" data-until="1"><text x="277" y="28" text-anchor="middle" class="ink w7" font-size="14.5">Bit 6 is the 40h place</text></g><g data-stage="2"><text x="277" y="28" text-anchor="middle" class="ink w7" font-size="14.5">So set bit 6 on 10h → 50h</text></g><rect x="44" y="62" width="38" height="40" class="ln" stroke-width="1.3" fill="none"/><text x="63" y="88" text-anchor="middle" class="mut mono-t" font-size="16">0</text><text x="63" y="116" text-anchor="middle" class="mut" font-size="9">bit 7</text><rect x="87" y="62" width="38" height="40" class="acc-s" stroke-width="2.2" fill="none"/><rect x="89" y="64" width="34" height="36" class="acc" opacity="0.16"/><text x="106" y="88" text-anchor="middle" class="acc mono-t w8" font-size="16">1</text><text x="106" y="116" text-anchor="middle" class="mut" font-size="9">bit 6</text><rect x="130" y="62" width="38" height="40" class="ln" stroke-width="1.3" fill="none"/><text x="149" y="88" text-anchor="middle" class="mut mono-t" font-size="16">0</text><text x="149" y="116" text-anchor="middle" class="mut" font-size="9">bit 5</text><rect x="173" y="62" width="38" height="40" class="ln" stroke-width="1.3" fill="none"/><g data-until="1"><text x="192" y="88" text-anchor="middle" class="mut mono-t" font-size="16">0</text></g><g data-stage="2"><rect x="175" y="64" width="34" height="36" class="acc" opacity="0.16"/><text x="192" y="88" text-anchor="middle" class="acc mono-t w8" font-size="16">1</text></g><text x="192" y="116" text-anchor="middle" class="mut" font-size="9">bit 4</text><rect x="216" y="62" width="38" height="40" class="ln" stroke-width="1.3" fill="none"/><text x="235" y="88" text-anchor="middle" class="mut mono-t" font-size="16">0</text><text x="235" y="116" text-anchor="middle" class="mut" font-size="9">bit 3</text><rect x="259" y="62" width="38" height="40" class="ln" stroke-width="1.3" fill="none"/><text x="278" y="88" text-anchor="middle" class="mut mono-t" font-size="16">0</text><text x="278" y="116" text-anchor="middle" class="mut" font-size="9">bit 2</text><rect x="302" y="62" width="38" height="40" class="ln" stroke-width="1.3" fill="none"/><text x="321" y="88" text-anchor="middle" class="mut mono-t" font-size="16">0</text><text x="321" y="116" text-anchor="middle" class="mut" font-size="9">bit 1</text><rect x="345" y="62" width="38" height="40" class="ln" stroke-width="1.3" fill="none"/><text x="364" y="88" text-anchor="middle" class="mut mono-t" font-size="16">0</text><text x="364" y="116" text-anchor="middle" class="mut" font-size="9">bit 0</text><g data-until="1"><text x="106" y="54" text-anchor="middle" class="acc mono-t w7" font-size="10.5">the 40h place</text></g><g data-stage="2"><text x="106" y="54" text-anchor="middle" class="acc mono-t w7" font-size="10.5">+40h</text></g><g data-stage="2"><text x="192" y="54" text-anchor="middle" class="acc mono-t" font-size="10">10h</text></g><text x="430" y="89" text-anchor="middle" class="mut mono-t w8" font-size="20">=</text><g data-until="1"><text x="481" y="83" text-anchor="middle" class="acc mono-t w8" font-size="19">40h</text><text x="481" y="101" text-anchor="middle" class="mut" font-size="10">= 64</text></g><g data-stage="2"><g><rect x="452" y="57" width="58" height="50" rx="0" class="plate tick" stroke-width="2.4"/><text x="481" y="88.8" text-anchor="middle" class="ink mono-t" font-size="20">50<tspan font-size="13.6">h</tspan></text><circle cx="501" cy="66" r="6" class="plate tick" stroke-width="1.3"/><path d="M 498.3 66 l 1.7 1.9 L 504 63.4" class="tick" stroke-width="1.5" fill="none" stroke-linecap="round" stroke-linejoin="round"/></g><text x="481" y="123" text-anchor="middle" class="acc mono-t w7" font-size="11">10h + 40h</text></g><g data-until="1"><text x="277" y="154" text-anchor="middle" class="mut" font-size="12">binary 0100 0000 = 40h = 64 decimal — bit 6's place value</text></g><g data-stage="2"><path d="M 44 134 H 510" class="ln" stroke-width="1"/><text x="277" y="154" text-anchor="middle" class="ink w7" font-size="12.5">set bit 6 = add 40h — on every service</text><text x="277" y="174" text-anchor="middle" class="acc mono-t w7" font-size="12">22h → 62h   ·   3Eh → 7Eh   ·   85h → C5h</text></g>
</svg>