<svg class="dgm" viewBox="0 0 540 268" role="img" aria-label="The request 10 03 returns as 50 03: service 10 becomes 50 by +0x40, and the sub-function 03 is echoed back unchanged except its top bit forced to 0.">
<text x="270" y="30" text-anchor="middle" class="ink w7" font-size="15">10 03 comes back as 50 03</text><text x="198" y="96" text-anchor="end" class="mut mono-t" font-size="11">you send</text><text x="198" y="202" text-anchor="end" class="mut mono-t" font-size="11">you get</text><text x="243" y="54" text-anchor="middle" class="mut" font-size="10">service</text><text x="313" y="54" text-anchor="middle" class="mut" font-size="10">sub-function</text><g data-stage="1"><rect x="214" y="66" width="58" height="50" rx="0" class="plate ln" stroke-width="2.4"/><text x="243" y="98.14" text-anchor="middle" class="ink mono-t" font-size="21">10</text></g><g data-stage="1"><rect x="284" y="66" width="58" height="50" rx="0" class="plate ecu-s" stroke-width="2.4"/><text x="313" y="98.14" text-anchor="middle" class="ecu mono-t" font-size="21">03</text></g><g data-stage="2"><rect x="214" y="172" width="58" height="50" rx="0" class="plate tick" stroke-width="2.4"/><text x="243" y="204.14" text-anchor="middle" class="ink mono-t" font-size="21">50</text><circle cx="260" cy="184" r="9" class="plate tick" stroke-width="1.6"/><path d="M 256 184 l 2.6 2.8 L 264.4 180.4" class="tick" stroke-width="1.9" fill="none" stroke-linecap="round" stroke-linejoin="round"/></g><g data-stage="3"><rect x="284" y="172" width="58" height="50" rx="0" class="plate ecu-s" stroke-width="2.4"/><text x="313" y="204.14" text-anchor="middle" class="ecu mono-t" font-size="21">03</text></g><g data-stage="2"><path d="M 243 120 V 167 M 238 161 L 243 167 L 248 161" class="acc-s" stroke-width="1.8" fill="none" stroke-linecap="round" stroke-linejoin="round"/><text x="234" y="148" text-anchor="end" class="acc mono-t" font-size="11">+0x40</text></g><g data-stage="3"><path d="M 313 120 V 167 M 308 161 L 313 167 L 318 161" class="ecu-s" stroke-width="1.8" fill="none" stroke-linecap="round" stroke-linejoin="round"/><text x="322" y="148" class="ecu mono-t" font-size="11">echoed</text></g><g data-stage="4"><path d="M 313 226 V 234" class="acc-s" stroke-width="1.3"/><text x="313" y="248" text-anchor="middle" class="acc mono-t" font-size="10.5">top bit forced to 0 — a flag → V4</text></g>
</svg>