<svg class="dgm" viewBox="0 0 544 184" role="img" aria-label="Setting bit 6 of the request 10 makes 50 — that fixed step is +0x40, and it applies to every service: 22 to 62, 3E to 7E, 85 to C5.">
<text x="272" y="28" text-anchor="middle" class="ink w7" font-size="14.5">Set bit 6: 10 becomes 50</text><rect x="44" y="60" width="38" height="40" class="ln" stroke-width="1.3" fill="none"/><text x="63" y="86" text-anchor="middle" class="mut mono-t " font-size="16">0</text><text x="63" y="114" text-anchor="middle" class="mut" font-size="9">bit 7</text><rect x="87" y="60" width="38" height="40" class="acc-s" stroke-width="2.2" fill="none"/><rect x="89" y="62" width="34" height="36" class="acc" opacity="0.16"/><text x="106" y="86" text-anchor="middle" class="acc mono-t w8" font-size="16">1</text><text x="106" y="114" text-anchor="middle" class="mut" font-size="9">bit 6</text><rect x="130" y="60" width="38" height="40" class="ln" stroke-width="1.3" fill="none"/><text x="149" y="86" text-anchor="middle" class="mut mono-t " font-size="16">0</text><text x="149" y="114" text-anchor="middle" class="mut" font-size="9">bit 5</text><rect x="173" y="60" width="38" height="40" class="ln" stroke-width="1.3" fill="none"/><text x="192" y="86" text-anchor="middle" class="ink mono-t " font-size="16">1</text><text x="192" y="114" text-anchor="middle" class="mut" font-size="9">bit 4</text><rect x="216" y="60" width="38" height="40" class="ln" stroke-width="1.3" fill="none"/><text x="235" y="86" text-anchor="middle" class="mut mono-t " font-size="16">0</text><text x="235" y="114" text-anchor="middle" class="mut" font-size="9">bit 3</text><rect x="259" y="60" width="38" height="40" class="ln" stroke-width="1.3" fill="none"/><text x="278" y="86" text-anchor="middle" class="mut mono-t " font-size="16">0</text><text x="278" y="114" text-anchor="middle" class="mut" font-size="9">bit 2</text><rect x="302" y="60" width="38" height="40" class="ln" stroke-width="1.3" fill="none"/><text x="321" y="86" text-anchor="middle" class="mut mono-t " font-size="16">0</text><text x="321" y="114" text-anchor="middle" class="mut" font-size="9">bit 1</text><rect x="345" y="60" width="38" height="40" class="ln" stroke-width="1.3" fill="none"/><text x="364" y="86" text-anchor="middle" class="mut mono-t " font-size="16">0</text><text x="364" y="114" text-anchor="middle" class="mut" font-size="9">bit 0</text><text x="106" y="52" text-anchor="middle" class="acc mono-t w7" font-size="11">set bit 6</text><text x="420" y="87" text-anchor="middle" class="mut mono-t w8" font-size="20">=</text><g><rect x="442" y="55" width="58" height="50" rx="0" class="plate tick" stroke-width="2.4"/><text x="471" y="86.8" text-anchor="middle" class="ink mono-t" font-size="20">50</text><circle cx="491" cy="64" r="6" class="plate tick" stroke-width="1.3"/><path d="M 488.3 64 l 1.7 1.9 L 494 61.4" class="tick" stroke-width="1.5" fill="none" stroke-linecap="round" stroke-linejoin="round"/></g><text x="471" y="121" text-anchor="middle" class="acc mono-t w7" font-size="12">= 10 + 0x40</text><path d="M 44 132 H 500" class="ln" stroke-width="1"/><text x="272" y="152" text-anchor="middle" class="ink w7" font-size="12.5">the same +0x40 on every service</text><text x="272" y="172" text-anchor="middle" class="acc mono-t w7" font-size="12">22 → 62   ·   3E → 7E   ·   85 → C5</text>
</svg>