<svg class="dgm" viewBox="0 0 512 250" role="img" aria-label="Request to positive-response SIDs all differ by 0x40: 10 to 50, 22 to 62, 27 to 67, 31 to 71.">
<text x="250" y="22" text-anchor="middle" class="ink w7" font-size="14">One rule, every service</text><g><rect x="60" y="38" width="58" height="50" rx="0" class="plate ln" stroke-width="2.4"/><text x="89" y="69.8" text-anchor="middle" class="ink mono-t" font-size="20">10</text></g><path d="M 128 63 H 222 M 216 58 L 222 63 L 216 68" class="ln" stroke-width="1.5" fill="none" stroke-linecap="round" stroke-linejoin="round"/><text x="175" y="54" text-anchor="middle" class="acc mono-t" font-size="11">+0x40</text><g><rect x="232" y="38" width="58" height="50" rx="0" class="plate tick" stroke-width="2.4"/><text x="261" y="69.8" text-anchor="middle" class="ink mono-t" font-size="20">50</text><circle cx="281" cy="47" r="6" class="plate tick" stroke-width="1.3"/><path d="M 278.3 47 l 1.7 1.9 L 284 44.4" class="tick" stroke-width="1.5" fill="none" stroke-linecap="round" stroke-linejoin="round"/></g><text x="306" y="67" class="mut mono-t" font-size="11.5">DiagnosticSessionControl</text><g><rect x="60" y="90" width="58" height="50" rx="0" class="plate ln" stroke-width="2.4"/><text x="89" y="121.8" text-anchor="middle" class="ink mono-t" font-size="20">22</text></g><path d="M 128 115 H 222 M 216 110 L 222 115 L 216 120" class="ln" stroke-width="1.5" fill="none" stroke-linecap="round" stroke-linejoin="round"/><text x="175" y="106" text-anchor="middle" class="acc mono-t" font-size="11">+0x40</text><g><rect x="232" y="90" width="58" height="50" rx="0" class="plate tick" stroke-width="2.4"/><text x="261" y="121.8" text-anchor="middle" class="ink mono-t" font-size="20">62</text><circle cx="281" cy="99" r="6" class="plate tick" stroke-width="1.3"/><path d="M 278.3 99 l 1.7 1.9 L 284 96.4" class="tick" stroke-width="1.5" fill="none" stroke-linecap="round" stroke-linejoin="round"/></g><text x="306" y="119" class="mut mono-t" font-size="11.5">ReadDataByIdentifier</text><g><rect x="60" y="142" width="58" height="50" rx="0" class="plate ln" stroke-width="2.4"/><text x="89" y="173.8" text-anchor="middle" class="ink mono-t" font-size="20">27</text></g><path d="M 128 167 H 222 M 216 162 L 222 167 L 216 172" class="ln" stroke-width="1.5" fill="none" stroke-linecap="round" stroke-linejoin="round"/><text x="175" y="158" text-anchor="middle" class="acc mono-t" font-size="11">+0x40</text><g><rect x="232" y="142" width="58" height="50" rx="0" class="plate tick" stroke-width="2.4"/><text x="261" y="173.8" text-anchor="middle" class="ink mono-t" font-size="20">67</text><circle cx="281" cy="151" r="6" class="plate tick" stroke-width="1.3"/><path d="M 278.3 151 l 1.7 1.9 L 284 148.4" class="tick" stroke-width="1.5" fill="none" stroke-linecap="round" stroke-linejoin="round"/></g><text x="306" y="171" class="mut mono-t" font-size="11.5">SecurityAccess</text><g><rect x="60" y="194" width="58" height="50" rx="0" class="plate ln" stroke-width="2.4"/><text x="89" y="225.8" text-anchor="middle" class="ink mono-t" font-size="20">31</text></g><path d="M 128 219 H 222 M 216 214 L 222 219 L 216 224" class="ln" stroke-width="1.5" fill="none" stroke-linecap="round" stroke-linejoin="round"/><text x="175" y="210" text-anchor="middle" class="acc mono-t" font-size="11">+0x40</text><g><rect x="232" y="194" width="58" height="50" rx="0" class="plate tick" stroke-width="2.4"/><text x="261" y="225.8" text-anchor="middle" class="ink mono-t" font-size="20">71</text><circle cx="281" cy="203" r="6" class="plate tick" stroke-width="1.3"/><path d="M 278.3 203 l 1.7 1.9 L 284 200.4" class="tick" stroke-width="1.5" fill="none" stroke-linecap="round" stroke-linejoin="round"/></g><text x="306" y="223" class="mut mono-t" font-size="11.5">RoutineControl</text>
</svg>