<svg class="dgm" viewBox="0 0 720 220" role="img" aria-label="UDS at the centre; Dcm runs it and Dem stores faults inside the ECU; ODX describes data, SOVD is the web-API successor, J1939 is the heavy-duty profile, and Dlt is developer logging">
  <text x="120" y="34" text-anchor="middle" class="mut mono-t" font-size="10" letter-spacing="1">INSIDE THE ECU · ECU内</text>
  <text x="600" y="34" text-anchor="middle" class="mut mono-t" font-size="10" letter-spacing="1">RELATIVES · 親戚</text>
  <path d="M 210 73 C 258 73 272 113 312 113" class="ln" stroke-width="1.3" fill="none"/><path d="M 210 131 C 258 131 272 113 312 113" class="ln" stroke-width="1.3" fill="none"/><path d="M 408 113 C 460 113 470 58 510 58" class="ln" stroke-width="1.3" fill="none"/><path d="M 408 113 C 460 113 470 102 510 102" class="ln" stroke-width="1.3" fill="none"/><path d="M 408 113 C 460 113 470 146 510 146" class="ln" stroke-width="1.3" fill="none"/><path d="M 408 113 C 460 113 470 190 510 190" class="ln" stroke-width="1.3" fill="none"/>
  <rect x="312" y="88" width="96" height="50" rx="7" class="fl acc-s" stroke-width="2.4"/>
  <text x="360" y="110" text-anchor="middle" class="acc w8" font-size="17">UDS</text>
  <text x="360" y="127" text-anchor="middle" class="mut mono-t" font-size="9">ISO 14229</text>
  <rect x="30" y="52" width="180" height="42" rx="5" class="fl acc-s" stroke-width="1.6"/>
    <text x="44" y="71" class="acc w7 mono-t" font-size="13">Dcm</text>
    <text x="44" y="87" class="mut" font-size="10">runs UDS in the ECU</text><rect x="30" y="110" width="180" height="42" rx="5" class="fl ln" stroke-width="1.3"/>
    <text x="44" y="129" class="ink w7 mono-t" font-size="13">Dem</text>
    <text x="44" y="145" class="mut" font-size="10">fault memory</text>
  <rect x="510" y="40" width="180" height="36" rx="5" class="fl ln" stroke-width="1.3"/>
    <text x="524" y="56" class="ink w7 mono-t" font-size="12.5">ODX</text>
    <text x="524" y="70" class="mut" font-size="9.5">describes the data</text><rect x="510" y="84" width="180" height="36" rx="5" class="fl acc-s" stroke-width="1.6"/>
    <text x="524" y="100" class="acc w7 mono-t" font-size="12.5">SOVD</text>
    <text x="524" y="114" class="mut" font-size="9.5">the web-API future</text><rect x="510" y="128" width="180" height="36" rx="5" class="fl ln" stroke-width="1.3"/>
    <text x="524" y="144" class="ink w7 mono-t" font-size="12.5">J1939</text>
    <text x="524" y="158" class="mut" font-size="9.5">heavy-duty profile</text><rect x="510" y="172" width="180" height="36" rx="5" class="fl ln" stroke-width="1.3"/>
    <text x="524" y="188" class="ink w7 mono-t" font-size="12.5">Dlt</text>
    <text x="524" y="202" class="mut" font-size="9.5">developer logging</text>
</svg>
