<svg class="dgm" viewBox="0 0 540 218" role="img" aria-label="One request forks to two possible answers: a faded positive reply 50 03 (already covered) and the negative reply 7F 10 22 (this chapter focus), which carries a reason code.">
<text x="270" y="26" text-anchor="middle" class="ink w7" font-size="15.5">One request, two possible answers</text><rect x="298" y="126" width="214" height="66" class="acc" opacity="0.10"/><path d="M 172 115 H 250" class="ln" stroke-width="1.7" fill="none"/><circle cx="250" cy="115" r="3.2" class="ln plate" stroke-width="1.4"/><g><rect x="36" y="90" width="58" height="50" rx="0" class="plate ln" stroke-width="2.4"/><text x="65" y="121.8" text-anchor="middle" class="ink mono-t" font-size="20">10<tspan font-size="13.6">h</tspan></text></g><g><rect x="106" y="90" width="58" height="50" rx="0" class="plate ecu-s" stroke-width="2.4"/><text x="135" y="121.8" text-anchor="middle" class="ecu mono-t" font-size="20">03<tspan font-size="13.6">h</tspan></text></g><text x="100" y="160" text-anchor="middle" class="mut mono-t" font-size="11">a request</text><g opacity="0.42"><path d="M 250 115 H 275 V 71 H 300 M 294 66 L 300 71 L 294 76" class="ln" stroke-width="1.7" fill="none" stroke-linecap="round" stroke-linejoin="round"/><g><rect x="306" y="46" width="58" height="50" rx="0" class="plate tick" stroke-width="2.4"/><text x="335" y="77.8" text-anchor="middle" class="ink mono-t" font-size="20">50<tspan font-size="13.6">h</tspan></text><circle cx="355" cy="55" r="6" class="plate tick" stroke-width="1.3"/><path d="M 352.3 55 l 1.7 1.9 L 358 52.4" class="tick" stroke-width="1.5" fill="none" stroke-linecap="round" stroke-linejoin="round"/></g><g><rect x="376" y="46" width="58" height="50" rx="0" class="plate ecu-s" stroke-width="2.4"/><text x="405" y="77.8" text-anchor="middle" class="ecu mono-t" font-size="20">03<tspan font-size="13.6">h</tspan></text></g><text x="370" y="116" text-anchor="middle" class="mut" font-size="11">positive — yes</text></g><path d="M 250 115 H 275 V 159 H 300 M 294 154 L 300 159 L 294 164" class="ln" stroke-width="1.7" fill="none" stroke-linecap="round" stroke-linejoin="round"/><g><rect x="306" y="134" width="58" height="50" rx="0" class="plate cross" stroke-width="2.4"/><text x="335" y="165.8" text-anchor="middle" class="ink mono-t" font-size="20">7F<tspan font-size="13.6">h</tspan></text><circle cx="355" cy="143" r="6" class="plate cross" stroke-width="1.3"/><path d="M 352.6 140.6 l 4.8 4.8 M 357.4 140.6 l -4.8 4.8" class="cross" stroke-width="1.5" stroke-linecap="round"/></g><g><rect x="376" y="134" width="58" height="50" rx="0" class="plate ln" stroke-width="2.4"/><text x="405" y="165.8" text-anchor="middle" class="ink mono-t" font-size="20">10<tspan font-size="13.6">h</tspan></text></g><g><rect x="446" y="134" width="58" height="50" rx="0" class="plate ln" stroke-width="2.4"/><text x="475" y="165.8" text-anchor="middle" class="ink mono-t" font-size="20">22<tspan font-size="13.6">h</tspan></text></g><text x="405" y="206" text-anchor="middle" class="acc w7" font-size="12">negative — no</text>
</svg>